<?xml version="1.0" standalone="no"?>
<!DOCTYPE svg PUBLIC "-//W3C//DTD SVG 20010904//EN"
 "http://www.w3.org/TR/2001/REC-SVG-20010904/DTD/svg10.dtd">
<svg version="1.0" xmlns="http://www.w3.org/2000/svg"
 width="512.000000pt" height="512.000000pt" viewBox="0 0 512.000000 512.000000"
 preserveAspectRatio="xMidYMid meet">
<metadata>
Created by potrace 1.14, written by Peter Selinger 2001-2017
</metadata>
<g transform="translate(0.000000,512.000000) scale(0.100000,-0.100000)"
fill="#000000" stroke="none">
<path d="M2279 5077 c-32 -24 -52 -78 -64 -172 -13 -96 -1 -492 20 -665 3 -19
7 -57 10 -85 3 -27 8 -66 11 -86 2 -20 7 -54 9 -75 8 -61 54 -332 65 -378 13
-54 12 -62 -2 -64 -7 0 -21 -2 -31 -4 -15 -2 -26 19 -61 122 -173 502 -468
1087 -599 1190 -36 29 -79 40 -103 27 -10 -5 -55 -44 -99 -87 -90 -85 -137
-112 -242 -135 -40 -9 -87 -26 -105 -39 -28 -18 -33 -28 -36 -68 -4 -58 38
-170 108 -287 27 -46 50 -86 50 -88 0 -8 164 -249 249 -366 119 -163 158 -213
313 -396 65 -77 107 -134 106 -146 -1 -11 2 -30 6 -42 11 -33 0 -29 -57 26
-335 316 -956 747 -1170 812 -118 36 -162 11 -187 -105 -16 -79 -41 -149 -62
-176 -11 -14 -52 -59 -92 -101 -40 -42 -75 -87 -78 -102 -11 -59 53 -129 203
-222 127 -79 391 -212 576 -291 18 -8 48 -20 65 -28 105 -46 304 -121 443
-167 88 -29 163 -58 167 -64 4 -5 8 -18 8 -29 0 -20 -2 -20 -125 7 -39 9 -82
18 -95 21 -14 2 -48 9 -77 15 -78 15 -389 60 -463 66 -36 3 -76 7 -90 10 -64
11 -244 20 -440 20 -236 0 -300 -10 -351 -53 -27 -22 -30 -31 -28 -71 1 -25
11 -71 21 -101 29 -86 31 -163 6 -250 -11 -41 -23 -98 -25 -126 -4 -47 -2 -53
26 -77 49 -41 122 -52 356 -52 188 0 296 5 435 21 25 2 65 7 90 10 25 2 61 7
80 9 19 3 53 7 75 10 89 11 132 17 180 25 28 5 68 12 90 15 31 4 206 41 315
67 10 2 15 -5 16 -24 1 -31 10 -26 -181 -88 -126 -41 -157 -53 -370 -138 -368
-148 -740 -345 -857 -453 -48 -44 -69 -94 -56 -129 5 -14 44 -61 87 -105 91
-94 103 -114 136 -236 13 -50 31 -102 40 -115 53 -81 224 -16 590 225 114 75
451 322 465 340 3 4 28 24 55 46 48 38 199 168 220 189 6 6 23 22 38 35 l27
25 -7 -49 c-3 -26 -13 -56 -22 -65 -87 -91 -244 -283 -364 -445 -53 -71 -101
-135 -106 -141 -45 -54 -243 -372 -286 -459 -82 -165 -93 -228 -45 -273 20
-18 78 -40 130 -48 87 -14 148 -52 252 -156 71 -72 101 -83 151 -57 50 26 141
145 219 286 145 264 383 813 437 1008 17 64 22 68 59 49 18 -8 32 -17 32 -19
0 -2 -6 -34 -14 -72 -20 -94 -46 -248 -61 -358 -3 -22 -7 -56 -10 -75 -6 -45
-13 -108 -20 -190 -4 -36 -9 -83 -11 -105 -11 -93 -13 -533 -3 -585 27 -139
67 -161 212 -119 109 31 168 32 273 4 101 -28 135 -30 166 -14 27 14 56 84 66
156 13 105 4 566 -13 633 -2 8 -7 49 -10 90 -4 41 -8 86 -10 100 -2 14 -9 61
-15 106 -6 44 -13 91 -15 104 -3 13 -7 42 -10 65 -3 22 -8 47 -10 55 -2 8 -6
31 -9 50 -7 44 -15 85 -25 132 -7 31 -5 40 13 57 l22 21 38 -113 c163 -476
454 -1074 588 -1206 41 -41 79 -61 104 -56 10 2 23 4 27 4 5 1 48 39 95 85
102 97 117 106 240 137 51 13 104 33 118 44 34 27 39 82 13 157 -79 228 -448
758 -804 1156 -16 19 -35 54 -42 79 l-11 45 21 -19 c12 -10 31 -27 43 -38 60
-56 186 -166 243 -211 13 -10 40 -33 60 -50 64 -54 272 -206 426 -310 264
-178 426 -262 526 -271 54 -5 57 -5 81 28 26 35 36 57 44 106 18 103 62 183
136 248 64 56 98 109 92 143 -15 79 -136 168 -444 325 -286 147 -556 260 -850
357 -159 53 -175 60 -178 82 l-3 25 123 -28 c135 -31 334 -66 478 -85 30 -4
66 -8 80 -10 14 -2 54 -6 90 -10 36 -3 76 -8 90 -9 186 -23 604 -27 693 -7 31
8 71 25 87 39 38 31 39 75 5 188 -28 96 -27 170 3 269 31 98 29 138 -8 169
-49 41 -122 52 -355 52 -187 -1 -363 -8 -435 -20 -14 -2 -54 -6 -90 -10 -36
-4 -76 -8 -90 -10 -14 -2 -47 -6 -75 -10 -169 -20 -560 -95 -588 -112 -5 -3
-7 7 -5 22 3 26 11 30 148 75 80 26 163 54 185 63 22 8 72 27 110 42 78 30 70
27 285 120 387 169 681 345 724 435 25 52 12 82 -69 161 -88 84 -115 130 -146
247 -16 63 -35 113 -48 125 -58 58 -202 9 -476 -164 -176 -111 -425 -289 -571
-409 -17 -14 -42 -34 -55 -45 -66 -54 -156 -130 -170 -144 -9 -9 -37 -36 -64
-60 l-47 -44 7 44 c6 35 22 60 81 127 354 396 741 984 761 1153 10 87 -13 107
-162 144 -99 25 -139 48 -214 124 -82 82 -93 91 -125 97 -37 6 -77 -17 -129
-77 -144 -164 -419 -741 -574 -1202 -25 -75 -27 -78 -43 -60 -17 17 -16 25 10
157 16 77 31 158 34 180 3 23 10 77 16 121 6 44 12 94 15 110 5 35 13 120 29
305 12 132 14 458 3 532 -8 54 -42 125 -65 137 -31 16 -79 13 -152 -10 -97
-31 -180 -32 -274 -3 -87 26 -142 30 -167 11z"/>
</g>
</svg>
