<svg class="injected-svg" id="svg-6b5c85f5-37d2-4602-84b7-f9696ac5a524" height="50%" width="100%" viewBox="0 0 540 508" xmlns="http://www.w3.org/2000/svg"><path xmlns="http://www.w3.org/2000/svg" id="SvgjsPath6892723" d="M9.12 2.10L9.12-1.40L8.07-1.40L8.07-8.40L6.57-8.40L6.57-1.40L2.25-1.40L2.25-8.40L0.75-8.40L0.75 0L7.62 0L7.77 2.10ZM17.87-2.55C17.87-3.39 17.25-4.27 16.62-4.54C17.14-4.81 17.43-5.54 17.43-6.01C17.43-7.33 16.35-8.40 15.02-8.40L10.32-8.40L10.32 0L15.32 0C16.73 0 17.87-1.14 17.87-2.55ZM15.32-3.63C15.90-3.63 16.37-3.13 16.37-2.55C16.37-1.98 15.90-1.45 15.32-1.45L11.82-1.45L11.82-3.63ZM15.02-6.94C15.51-6.94 15.93-6.51 15.93-6.01C15.93-5.50 15.55-5.12 15.20-5.08L11.82-5.08L11.82-6.94ZM23.42-1.41C22.10-1.41 21.02-2.38 20.75-3.67L27.42-3.67C27.44-3.78 27.45-4.04 27.45-4.21C27.45-6.61 25.64-8.45 23.39-8.45C21.05-8.45 19.20-6.54 19.20-4.21C19.20-1.81 21.08 0.04 23.42 0.04C25.58 0.04 26.58-1.08 26.76-1.30L25.85-2.46C25.59-2.16 24.86-1.41 23.42-1.41ZM23.39-6.94C24.62-6.94 25.64-6.08 25.82-5.07L20.81-5.07C21.11-6.15 22.13-6.94 23.39-6.94ZM32.94 0L32.94-7.00L35.94-7.00L35.94-8.40L28.44-8.40L28.44-7.00L31.44-7.00L31.44 0ZM37.44 0L41.98 0C43.47 0 44.68-1.20 44.68-2.70C44.68-4.18 43.47-5.37 41.98-5.37L38.94-5.37L38.94-8.40L37.44-8.40ZM45.69 0L47.19 0L47.19-8.40L45.69-8.40ZM38.94-1.45L38.94-3.92L41.98-3.92C42.67-3.92 43.23-3.39 43.23-2.70C43.23-2.01 42.67-1.45 41.98-1.45ZM60.73-2.55C60.73-3.39 60.12-4.27 59.49-4.54C60.02-4.81 60.30-5.54 60.30-6.01C60.30-7.33 59.22-8.40 57.88-8.40L53.19-8.40L53.19 0L58.18 0C59.59 0 60.73-1.14 60.73-2.55ZM58.18-3.63C58.77-3.63 59.23-3.13 59.23-2.55C59.23-1.98 58.77-1.45 58.18-1.45L54.69-1.45L54.69-3.63ZM57.88-6.94C58.38-6.94 58.80-6.51 58.80-6.01C58.80-5.50 58.42-5.12 58.06-5.08L54.69-5.08L54.69-6.94ZM70.77-3.67C71.01-3.65 71.20-3.44 71.37-3.09L72.19-1.30C72.60-0.43 73.32 0.04 74.14 0.04L74.73-0.10L74.73-1.45L74.14-1.45C73.91-1.45 73.68-1.67 73.52-2.04L72.69-3.82C72.58-4.04 72.27-4.33 72.14-4.38C72.27-4.46 72.63-4.75 72.72-5.00L73.23-6.31C73.38-6.69 73.62-6.90 73.86-6.90L74.44-6.90L74.44-8.25L73.86-8.40C73.05-8.40 72.30-7.92 71.91-7.05L71.40-5.73C71.27-5.37 71.01-5.10 70.80-5.07L68.23-5.07L68.23-8.40L66.73-8.40L66.73 0L68.23 0L68.23-3.67ZM75.93-2.67C75.93-1.17 77.00 0.04 78.78 0.04C80.30 0.04 81.29-0.58 82.11-1.24L82.35 0L83.55 0L83.55-5.02C83.55-7.36 82.05-8.45 79.98-8.45C78.51-8.45 77.69-8.10 76.67-7.51L76.67-6.04L77.87-6.04L77.96-6.64C78.56-6.96 79.07-7.05 79.98-7.05C81.08-7.05 82.05-6.45 82.05-5.31L82.05-4.79C81.23-5.19 80.27-5.38 78.78-5.38C77.00-5.38 75.93-4.17 75.93-2.67ZM77.39-2.67C77.39-3.36 77.79-4.05 78.93-4.05C80.12-4.05 81.26-3.84 82.05-3.45L82.05-2.71C81.24-1.93 80.27-1.29 79.08-1.29C77.94-1.29 77.39-1.98 77.39-2.67ZM94.38-3.67C94.62-3.65 94.82-3.44 94.98-3.09L95.81-1.30C96.21-0.43 96.93 0.04 97.76 0.04L98.34-0.10L98.34-1.45L97.76-1.45C97.52-1.45 97.29-1.67 97.13-2.04L96.30-3.82C96.20-4.04 95.88-4.33 95.75-4.38C95.88-4.46 96.24-4.75 96.33-5.00L96.84-6.31C96.99-6.69 97.23-6.90 97.47-6.90L98.06-6.90L98.06-8.25L97.47-8.40C96.66-8.40 95.91-7.92 95.52-7.05L95.01-5.73C94.88-5.37 94.62-5.10 94.41-5.07L92.45-5.07L92.45-8.40L90.95-8.40L90.95-5.07L88.98-5.07C88.76-5.10 88.52-5.37 88.38-5.73L87.87-7.05C87.48-7.92 86.73-8.40 85.92-8.40L85.34-8.25L85.34-6.90L85.92-6.90C86.16-6.90 86.40-6.69 86.55-6.31L87.06-5.00C87.15-4.75 87.50-4.46 87.65-4.38C87.51-4.33 87.18-4.04 87.09-3.82L86.27-2.04C86.09-1.67 85.88-1.45 85.64-1.45L85.05-1.45L85.05-0.10L85.64 0.04C86.45 0.04 87.18-0.43 87.59-1.30L88.41-3.09C88.56-3.44 88.71-3.65 89.01-3.67L90.95-3.67L90.95 0L92.45 0L92.45-3.67ZM101.28-7.20L102.33-7.05L101.31-2.04C101.23-1.67 100.92-1.40 100.68-1.40L99.84-1.40L99.84 2.10L101.19 2.10L101.34 0L107.76 0L107.91 2.10L109.26 2.10L109.26-1.40L108.21-1.40L108.21-8.40L101.28-8.40ZM102.65-1.40L103.81-7.05L106.71-7.05L106.71-1.40ZM110.76 0L115.31 0C116.79 0 118.01-1.20 118.01-2.70C118.01-4.18 116.79-5.37 115.31-5.37L112.26-5.37L112.26-8.40L110.76-8.40ZM119.01 0L120.51 0L120.51-8.40L119.01-8.40ZM112.26-1.45L112.26-3.92L115.31-3.92C116.00-3.92 116.55-3.39 116.55-2.70C116.55-2.01 116.00-1.45 115.31-1.45ZM127.01-11.25C126.96-10.59 126.62-10.33 125.82-10.33C125.03-10.33 124.67-10.61 124.62-11.25L123.53-11.25C123.53-10.13 124.47-9.31 125.82-9.31C127.17-9.31 128.12-10.13 128.12-11.25ZM129.63 0L129.63-8.40L126.89-8.40L123.86-1.50L123.51-1.50L123.51-8.40L122.01-8.40L122.01 0L124.65 0L127.65-6.90L128.13-6.90L128.13 0ZM137.07-7.20L138.12-7.05L137.10-2.04C137.03-1.67 136.71-1.40 136.47-1.40L135.63-1.40L135.63 2.10L136.98 2.10L137.13 0L143.55 0L143.70 2.10L145.05 2.10L145.05-1.40L144-1.40L144-8.40L137.07-8.40ZM138.44-1.40L139.60-7.05L142.50-7.05L142.50-1.40ZM150.45-8.45C148.11-8.45 146.08-6.54 146.08-4.21C146.08-1.86 148.11 0.04 150.45 0.04C152.77 0.04 154.80-1.86 154.80-4.21C154.80-6.54 152.77-8.45 150.45-8.45ZM150.45-6.94C151.98-6.94 153.30-5.71 153.30-4.21C153.30-2.69 151.98-1.45 150.45-1.45C148.92-1.45 147.58-2.69 147.58-4.21C147.58-5.71 148.92-6.94 150.45-6.94ZM157.48 0L157.48-7.00L157.90-7.00L159.33-3L161.50-3L162.93-7.00L163.35-7.00L163.35 0L164.85 0L164.85-8.40L162.06-8.40L160.60-4.39L160.21-4.39L158.77-8.40L155.98-8.40L155.98 0Z" fill="#4e7440"  transform="matrix(1,0,0,1,187.2,298.575)"></path><path xmlns="http://www.w3.org/2000/svg" id="SvgjsPath6897242" d="M6.71 0L6.71-54.75Q9.72-55.46 13.19-55.70Q16.67-55.93 20.07-55.93L20.07-55.93Q23.70-55.93 27.45-55.22Q31.21-54.51 34.29-52.61Q37.37-50.72 39.30-47.40Q41.24-44.08 41.24-38.95L41.24-38.95Q41.24-33.89 39.42-30.41Q37.60-26.94 34.60-24.77Q31.60-22.59 27.73-21.65Q23.86-20.70 19.75-20.70L19.75-20.70Q19.36-20.70 18.45-20.70Q17.54-20.70 16.55-20.74Q15.56-20.78 14.62-20.86Q13.67-20.93 13.27-21.01L13.27-21.01L13.27 0L6.71 0ZM20.22-50.24L20.22-50.24Q18.17-50.24 16.27-50.16Q14.38-50.09 13.27-49.77L13.27-49.77L13.27-26.86Q13.67-26.70 14.54-26.66Q15.40-26.62 16.35-26.58Q17.30-26.54 18.17-26.54Q19.04-26.54 19.43-26.54L19.43-26.54Q22.12-26.54 24.77-27.06Q27.41-27.57 29.55-28.91Q31.68-30.26 32.98-32.71Q34.29-35.16 34.29-38.95L34.29-38.95Q34.29-42.19 33.06-44.36Q31.84-46.53 29.82-47.83Q27.81-49.14 25.28-49.69Q22.75-50.24 20.22-50.24ZM45.19-19.75L45.19-19.75Q45.19-29.78 49.65-35.12Q54.12-40.45 62.49-40.45L62.49-40.45Q66.91-40.45 70.19-38.99Q73.47-37.52 75.60-34.80Q77.74-32.07 78.76-28.24Q79.79-24.41 79.79-19.75L79.79-19.75Q79.79-9.72 75.33-4.38Q70.86 0.95 62.49 0.95L62.49 0.95Q58.06 0.95 54.79-0.51Q51.51-1.98 49.38-4.70Q47.24-7.43 46.22-11.26Q45.19-15.09 45.19-19.75ZM51.75-19.75L51.75-19.75Q51.75-16.75 52.34-13.98Q52.93-11.22 54.19-9.16Q55.46-7.11 57.51-5.85Q59.57-4.58 62.49-4.58L62.49-4.58Q73.23-4.50 73.23-19.75L73.23-19.75Q73.23-22.83 72.64-25.60Q72.05-28.36 70.78-30.41Q69.52-32.47 67.47-33.69Q65.41-34.92 62.49-34.92L62.49-34.92Q51.75-35.00 51.75-19.75ZM122.37 0L122.37-23.46L122.84-30.97L122.45-30.97L119.61-24.89L110.05-9.40L107.84-9.40L97.88-24.89L95.27-30.97L94.96-30.97L95.59-23.54L95.59 0L89.74 0L89.74-39.50L95.98-39.50L107.05-21.80L109.34-17.22L109.49-17.22L111.86-21.96L122.21-39.50L128.53-39.50L128.53 0L122.37 0ZM142.04-31.84L140.07-36.58Q143.07-38.39 147.06-39.26Q151.05-40.13 155.39-40.13L155.39-40.13Q159.50-40.13 161.99-39.03Q164.48-37.92 165.78-36.14Q167.08-34.37 167.52-32.23Q167.95-30.10 167.95-27.97L167.95-27.97Q167.95-23.23 167.72-18.72Q167.48-14.22 167.48-10.19L167.48-10.19Q167.48-7.27 167.72-4.66Q167.95-2.05 168.59 0.16L168.59 0.16L163.92 0.16L162.27-5.37L161.87-5.37Q161.16-4.27 160.09-3.20Q159.03-2.13 157.53-1.30Q156.02-0.47 154.05 0.08Q152.07 0.63 149.55 0.63L149.55 0.63Q147.02 0.63 144.85-0.16Q142.67-0.95 141.09-2.41Q139.51-3.87 138.61-5.92Q137.70-7.98 137.70-10.59L137.70-10.59Q137.70-14.06 139.12-16.39Q140.54-18.72 143.11-20.11Q145.68-21.49 149.27-22.08Q152.86-22.67 157.21-22.67L157.21-22.67Q158.32-22.67 159.38-22.67Q160.45-22.67 161.55-22.52L161.55-22.52Q161.79-24.89 161.79-26.78L161.79-26.78Q161.79-31.13 160.05-32.86Q158.32-34.60 153.73-34.60L153.73-34.60Q152.39-34.60 150.85-34.40Q149.31-34.21 147.69-33.85Q146.07-33.50 144.61-32.98Q143.15-32.47 142.04-31.84L142.04-31.84ZM151.28-4.90L151.28-4.90Q153.50-4.90 155.23-5.49Q156.97-6.08 158.24-6.99Q159.50-7.90 160.33-9.01Q161.16-10.11 161.55-11.14L161.55-11.14L161.55-17.70Q160.45-17.77 159.30-17.81Q158.16-17.85 157.05-17.85L157.05-17.85Q154.60-17.85 152.27-17.58Q149.94-17.30 148.16-16.55Q146.39-15.80 145.32-14.50Q144.25-13.19 144.25-11.22L144.25-11.22Q144.25-8.45 146.23-6.68Q148.20-4.90 151.28-4.90ZM225.86 0L179.88 0L179.88-39.50L186.20-39.50L186.20-5.53L199.71-5.53L199.71-39.50L206.03-39.50L206.03-5.53L219.54-5.53L219.54-39.50L225.86-39.50L225.86 0ZM261.17 0L247.98-17.77L244.35-17.77L244.35 0L238.03 0L238.03-39.50L244.35-39.50L244.35-21.65L247.74-22.75L260.38-39.50L267.26-39.50L255.01-23.62L251.69-21.01L255.80-17.85L269.00 0L261.17 0ZM277.13-31.84L275.16-36.58Q278.16-38.39 282.15-39.26Q286.14-40.13 290.48-40.13L290.48-40.13Q294.59-40.13 297.08-39.03Q299.57-37.92 300.87-36.14Q302.18-34.37 302.61-32.23Q303.04-30.10 303.04-27.97L303.04-27.97Q303.04-23.23 302.81-18.72Q302.57-14.22 302.57-10.19L302.57-10.19Q302.57-7.27 302.81-4.66Q303.04-2.05 303.68 0.16L303.68 0.16L299.02 0.16L297.36-5.37L296.96-5.37Q296.25-4.27 295.18-3.20Q294.12-2.13 292.62-1.30Q291.12-0.47 289.14 0.08Q287.17 0.63 284.64 0.63L284.64 0.63Q282.11 0.63 279.94-0.16Q277.76-0.95 276.18-2.41Q274.60-3.87 273.70-5.92Q272.79-7.98 272.79-10.59L272.79-10.59Q272.79-14.06 274.21-16.39Q275.63-18.72 278.20-20.11Q280.77-21.49 284.36-22.08Q287.96-22.67 292.30-22.67L292.30-22.67Q293.41-22.67 294.47-22.67Q295.54-22.67 296.65-22.52L296.65-22.52Q296.88-24.89 296.88-26.78L296.88-26.78Q296.88-31.13 295.14-32.86Q293.41-34.60 288.82-34.60L288.82-34.60Q287.48-34.60 285.94-34.40Q284.40-34.21 282.78-33.85Q281.16-33.50 279.70-32.98Q278.24-32.47 277.13-31.84L277.13-31.84ZM286.38-4.90L286.38-4.90Q288.59-4.90 290.33-5.49Q292.06-6.08 293.33-6.99Q294.59-7.90 295.42-9.01Q296.25-10.11 296.65-11.14L296.65-11.14L296.65-17.70Q295.54-17.77 294.39-17.81Q293.25-17.85 292.14-17.85L292.14-17.85Q289.69-17.85 287.36-17.58Q285.03-17.30 283.25-16.55Q281.48-15.80 280.41-14.50Q279.34-13.19 279.34-11.22L279.34-11.22Q279.34-8.45 281.32-6.68Q283.29-4.90 286.38-4.90Z" fill="#4e7440"  transform="matrix(1,0,0,1,114.30499999999999,264.49)"></path></svg>